# xmcd
#
# Track frame offsets: 
#        150
#        16520
#        33218
#        49700
#        65140
#        82051
#        97011
#        114046
#        130959
#        146127
#        164286
#        180979
#
# Disc length: 2615 seconds
#
# Revision: 2
# Processed by: cddbd v1.5.2PL0 Copyright (c) Steve Scherf et al.
# Submitted via: ExactAudioCopyFreeDBPlugin 1.0
#
DISCID=970a350c
DTITLE=Suzy Bogguss - Lucky
DYEAR=2014
DGENRE=Country
TTITLE0=Today I Started Loving You Again
TTITLE1=Silver Wings
TTITLE2=The Bottle Let Me Down
TTITLE3=I Always Get Lucky With You
TTITLE4=If We Make It Through December
TTITLE5=Let's Chase Each Other Around The Room
TTITLE6=The Running Kind
TTITLE7=Going Where The Lonely Go
TTITLE8=Someday When Things Are Good
TTITLE9=I Think I'll Just Stay Here And Drink
TTITLE10=Sing Me Back Home
TTITLE11=You Don't Have Very Far To Go
EXTD=
EXTT0=
EXTT1=
EXTT2=
EXTT3=
EXTT4=
EXTT5=
EXTT6=
EXTT7=
EXTT8=
EXTT9=
EXTT10=
EXTT11=
PLAYORDER=
